<?xml version="1.0" encoding="UTF-8"?>
<svg xmlns="http://www.w3.org/2000/svg" width="1920" height="1240" viewBox="0 0 1920 1240" font-family="Arial, Segoe UI, sans-serif"><rect width="1920" height="1240" fill="#f4f6f8"/><rect x="0" y="0" width="1920" height="205" fill="#fff"/><rect x="58" y="42" width="78" height="78" rx="12" fill="#1f5f6f"/><text x="97" y="92" text-anchor="middle" font-size="24" font-weight="800" fill="#fff">CT</text><text x="160" y="67" font-size="35" font-weight="800" fill="#17212b">CRUD Table</text><text x="160" y="103" font-size="18" font-weight="600" fill="#64748b">CV Tajuk Revenue Cycle MVP - Class Diagram Version - Updated 12 July 2026</text><text x="160" y="135" font-size="16" font-weight="500" fill="#64748b">Columns use exact class names from the provided diagram. C = Create, R = Read, U = Update, D = Delete.</text><rect x="58" y="214" width="32" height="30" rx="7" fill="#e8f7f0" stroke="#047857" stroke-opacity="0.18"/><text x="74" y="235" text-anchor="middle" font-size="15" font-weight="800" fill="#047857">C</text><text x="100" y="235" font-size="15" font-weight="650" fill="#64748b">Create</text><rect x="228" y="214" width="32" height="30" rx="7" fill="#eef6ff" stroke="#1d4ed8" stroke-opacity="0.18"/><text x="244" y="235" text-anchor="middle" font-size="15" font-weight="800" fill="#1d4ed8">R</text><text x="270" y="235" font-size="15" font-weight="650" fill="#64748b">Read</text><rect x="398" y="214" width="32" height="30" rx="7" fill="#fff7e6" stroke="#b7791f" stroke-opacity="0.18"/><text x="414" y="235" text-anchor="middle" font-size="15" font-weight="800" fill="#b7791f">U</text><text x="440" y="235" font-size="15" font-weight="650" fill="#64748b">Update</text><rect x="578" y="214" width="38" height="30" rx="7" fill="#fff1f2" stroke="#be123c" stroke-opacity="0.18"/><text x="597" y="235" text-anchor="middle" font-size="15" font-weight="800" fill="#be123c">D*</text><text x="626" y="235" font-size="15" font-weight="650" fill="#64748b">Restricted delete</text><rect x="823" y="214" width="38" height="30" rx="7" fill="#f3f0ff" stroke="#6d28d9" stroke-opacity="0.18"/><text x="842" y="235" text-anchor="middle" font-size="15" font-weight="800" fill="#6d28d9">C*</text><text x="871" y="235" font-size="15" font-weight="650" fill="#64748b">Automatic/system action</text><rect x="58" y="275" width="1804" height="780" rx="8" fill="#fff" stroke="#d9e0e8"/><rect x="58" y="275" width="1804" height="84" rx="8" fill="#edf4f7"/><rect x="58" y="351" width="1804" height="8" fill="#edf4f7"/><line x1="58" y1="275" x2="58" y2="1055" stroke="#d9e0e8"/><text x="76.00" y="322.33" text-anchor="start" font-size="16" font-weight="800" fill="#1f5f6f"><tspan x="76.00" dy="0">Module / Process</tspan></text><line x1="383" y1="275" x2="383" y2="1055" stroke="#d9e0e8"/><text x="450.23" y="321.17" text-anchor="middle" font-size="12.5" font-weight="800" fill="#1f5f6f"><tspan x="450.23" dy="0">User</tspan></text><line x1="517.4545454545455" y1="275" x2="517.4545454545455" y2="1055" stroke="#d9e0e8"/><text x="584.68" y="321.17" text-anchor="middle" font-size="12.5" font-weight="800" fill="#1f5f6f"><tspan x="584.68" dy="0">Customer</tspan></text><line x1="651.909090909091" y1="275" x2="651.909090909091" y2="1055" stroke="#d9e0e8"/><text x="719.14" y="321.17" text-anchor="middle" font-size="12.5" font-weight="800" fill="#1f5f6f"><tspan x="719.14" dy="0">SalesOrder</tspan></text><line x1="786.3636363636365" y1="275" x2="786.3636363636365" y2="1055" stroke="#d9e0e8"/><text x="853.59" y="321.17" text-anchor="middle" font-size="12.5" font-weight="800" fill="#1f5f6f"><tspan x="853.59" dy="0">PreOrder</tspan></text><line x1="920.818181818182" y1="275" x2="920.818181818182" y2="1055" stroke="#d9e0e8"/><text x="988.05" y="321.17" text-anchor="middle" font-size="12.5" font-weight="800" fill="#1f5f6f"><tspan x="988.05" dy="0">SalesOrderItem</tspan></text><line x1="1055.2727272727275" y1="275" x2="1055.2727272727275" y2="1055" stroke="#d9e0e8"/><text x="1122.50" y="321.17" text-anchor="middle" font-size="12.5" font-weight="800" fill="#1f5f6f"><tspan x="1122.50" dy="0">Product</tspan></text><line x1="1189.727272727273" y1="275" x2="1189.727272727273" y2="1055" stroke="#d9e0e8"/><text x="1256.95" y="321.17" text-anchor="middle" font-size="12.5" font-weight="800" fill="#1f5f6f"><tspan x="1256.95" dy="0">FollowUp</tspan></text><line x1="1324.1818181818185" y1="275" x2="1324.1818181818185" y2="1055" stroke="#d9e0e8"/><text x="1391.41" y="321.17" text-anchor="middle" font-size="12.5" font-weight="800" fill="#1f5f6f"><tspan x="1391.41" dy="0">Invoice</tspan></text><line x1="1458.636363636364" y1="275" x2="1458.636363636364" y2="1055" stroke="#d9e0e8"/><text x="1525.86" y="321.17" text-anchor="middle" font-size="12.5" font-weight="800" fill="#1f5f6f"><tspan x="1525.86" dy="0">Payment</tspan></text><line x1="1593.0909090909095" y1="275" x2="1593.0909090909095" y2="1055" stroke="#d9e0e8"/><text x="1660.32" y="321.17" text-anchor="middle" font-size="12.5" font-weight="800" fill="#1f5f6f"><tspan x="1660.32" dy="0">DeliveryNote</tspan></text><line x1="1727.545454545455" y1="275" x2="1727.545454545455" y2="1055" stroke="#d9e0e8"/><text x="1794.77" y="321.17" text-anchor="middle" font-size="12.5" font-weight="800" fill="#1f5f6f"><tspan x="1794.77" dy="0">DeliveryNoteItem</tspan></text><line x1="1862" y1="275" x2="1862" y2="1055" stroke="#d9e0e8"/><line x1="58" y1="359" x2="1862" y2="359" stroke="#d9e0e8"/><line x1="58" y1="417" x2="1862" y2="417" stroke="#d9e0e8"/><text x="76.00" y="393.00" text-anchor="start" font-size="15" font-weight="700" fill="#17212b"><tspan x="76.00" dy="0">Login &amp; Account Settings</tspan></text><rect x="421.23" y="374.00" width="27" height="28" rx="6" fill="#e8f7f0" stroke="#047857" stroke-opacity="0.18"/><text x="434.73" y="393.50" text-anchor="middle" font-size="13" font-weight="800" fill="#047857">C</text><rect x="452.23" y="374.00" width="27" height="28" rx="6" fill="#eef6ff" stroke="#1d4ed8" stroke-opacity="0.18"/><text x="465.73" y="393.50" text-anchor="middle" font-size="13" font-weight="800" fill="#1d4ed8">R</text><rect x="58" y="417" width="1804" height="58" fill="#f8fafc"/><line x1="58" y1="475" x2="1862" y2="475" stroke="#d9e0e8"/><text x="76.00" y="451.00" text-anchor="start" font-size="15" font-weight="700" fill="#17212b"><tspan x="76.00" dy="0">Dashboard &amp; Notifications</tspan></text><rect x="436.73" y="432.00" width="27" height="28" rx="6" fill="#eef6ff" stroke="#1d4ed8" stroke-opacity="0.18"/><text x="450.23" y="451.50" text-anchor="middle" font-size="13" font-weight="800" fill="#1d4ed8">R</text><rect x="571.18" y="432.00" width="27" height="28" rx="6" fill="#eef6ff" stroke="#1d4ed8" stroke-opacity="0.18"/><text x="584.68" y="451.50" text-anchor="middle" font-size="13" font-weight="800" fill="#1d4ed8">R</text><rect x="705.64" y="432.00" width="27" height="28" rx="6" fill="#eef6ff" stroke="#1d4ed8" stroke-opacity="0.18"/><text x="719.14" y="451.50" text-anchor="middle" font-size="13" font-weight="800" fill="#1d4ed8">R</text><rect x="840.09" y="432.00" width="27" height="28" rx="6" fill="#eef6ff" stroke="#1d4ed8" stroke-opacity="0.18"/><text x="853.59" y="451.50" text-anchor="middle" font-size="13" font-weight="800" fill="#1d4ed8">R</text><rect x="974.55" y="432.00" width="27" height="28" rx="6" fill="#eef6ff" stroke="#1d4ed8" stroke-opacity="0.18"/><text x="988.05" y="451.50" text-anchor="middle" font-size="13" font-weight="800" fill="#1d4ed8">R</text><rect x="1109.00" y="432.00" width="27" height="28" rx="6" fill="#eef6ff" stroke="#1d4ed8" stroke-opacity="0.18"/><text x="1122.50" y="451.50" text-anchor="middle" font-size="13" font-weight="800" fill="#1d4ed8">R</text><rect x="1243.45" y="432.00" width="27" height="28" rx="6" fill="#eef6ff" stroke="#1d4ed8" stroke-opacity="0.18"/><text x="1256.95" y="451.50" text-anchor="middle" font-size="13" font-weight="800" fill="#1d4ed8">R</text><rect x="1377.91" y="432.00" width="27" height="28" rx="6" fill="#eef6ff" stroke="#1d4ed8" stroke-opacity="0.18"/><text x="1391.41" y="451.50" text-anchor="middle" font-size="13" font-weight="800" fill="#1d4ed8">R</text><rect x="1512.36" y="432.00" width="27" height="28" rx="6" fill="#eef6ff" stroke="#1d4ed8" stroke-opacity="0.18"/><text x="1525.86" y="451.50" text-anchor="middle" font-size="13" font-weight="800" fill="#1d4ed8">R</text><rect x="1646.82" y="432.00" width="27" height="28" rx="6" fill="#eef6ff" stroke="#1d4ed8" stroke-opacity="0.18"/><text x="1660.32" y="451.50" text-anchor="middle" font-size="13" font-weight="800" fill="#1d4ed8">R</text><rect x="1781.27" y="432.00" width="27" height="28" rx="6" fill="#eef6ff" stroke="#1d4ed8" stroke-opacity="0.18"/><text x="1794.77" y="451.50" text-anchor="middle" font-size="13" font-weight="800" fill="#1d4ed8">R</text><line x1="58" y1="533" x2="1862" y2="533" stroke="#d9e0e8"/><text x="76.00" y="509.00" text-anchor="start" font-size="15" font-weight="700" fill="#17212b"><tspan x="76.00" dy="0">Customer Management</tspan></text><rect x="540.18" y="490.00" width="27" height="28" rx="6" fill="#e8f7f0" stroke="#047857" stroke-opacity="0.18"/><text x="553.68" y="509.50" text-anchor="middle" font-size="13" font-weight="800" fill="#047857">C</text><rect x="571.18" y="490.00" width="27" height="28" rx="6" fill="#eef6ff" stroke="#1d4ed8" stroke-opacity="0.18"/><text x="584.68" y="509.50" text-anchor="middle" font-size="13" font-weight="800" fill="#1d4ed8">R</text><rect x="602.18" y="490.00" width="27" height="28" rx="6" fill="#fff7e6" stroke="#b7791f" stroke-opacity="0.18"/><text x="615.68" y="509.50" text-anchor="middle" font-size="13" font-weight="800" fill="#b7791f">U</text><rect x="705.64" y="490.00" width="27" height="28" rx="6" fill="#eef6ff" stroke="#1d4ed8" stroke-opacity="0.18"/><text x="719.14" y="509.50" text-anchor="middle" font-size="13" font-weight="800" fill="#1d4ed8">R</text><rect x="840.09" y="490.00" width="27" height="28" rx="6" fill="#eef6ff" stroke="#1d4ed8" stroke-opacity="0.18"/><text x="853.59" y="509.50" text-anchor="middle" font-size="13" font-weight="800" fill="#1d4ed8">R</text><rect x="1377.91" y="490.00" width="27" height="28" rx="6" fill="#eef6ff" stroke="#1d4ed8" stroke-opacity="0.18"/><text x="1391.41" y="509.50" text-anchor="middle" font-size="13" font-weight="800" fill="#1d4ed8">R</text><rect x="1646.82" y="490.00" width="27" height="28" rx="6" fill="#eef6ff" stroke="#1d4ed8" stroke-opacity="0.18"/><text x="1660.32" y="509.50" text-anchor="middle" font-size="13" font-weight="800" fill="#1d4ed8">R</text><rect x="58" y="533" width="1804" height="58" fill="#f8fafc"/><line x1="58" y1="591" x2="1862" y2="591" stroke="#d9e0e8"/><text x="76.00" y="567.00" text-anchor="start" font-size="15" font-weight="700" fill="#17212b"><tspan x="76.00" dy="0">Product Management</tspan></text><rect x="974.55" y="548.00" width="27" height="28" rx="6" fill="#eef6ff" stroke="#1d4ed8" stroke-opacity="0.18"/><text x="988.05" y="567.50" text-anchor="middle" font-size="13" font-weight="800" fill="#1d4ed8">R</text><rect x="1078.00" y="548.00" width="27" height="28" rx="6" fill="#e8f7f0" stroke="#047857" stroke-opacity="0.18"/><text x="1091.50" y="567.50" text-anchor="middle" font-size="13" font-weight="800" fill="#047857">C</text><rect x="1109.00" y="548.00" width="27" height="28" rx="6" fill="#eef6ff" stroke="#1d4ed8" stroke-opacity="0.18"/><text x="1122.50" y="567.50" text-anchor="middle" font-size="13" font-weight="800" fill="#1d4ed8">R</text><rect x="1140.00" y="548.00" width="27" height="28" rx="6" fill="#fff7e6" stroke="#b7791f" stroke-opacity="0.18"/><text x="1153.50" y="567.50" text-anchor="middle" font-size="13" font-weight="800" fill="#b7791f">U</text><line x1="58" y1="649" x2="1862" y2="649" stroke="#d9e0e8"/><text x="76.00" y="625.00" text-anchor="start" font-size="15" font-weight="700" fill="#17212b"><tspan x="76.00" dy="0">SalesOrder Management</tspan></text><rect x="571.18" y="606.00" width="27" height="28" rx="6" fill="#eef6ff" stroke="#1d4ed8" stroke-opacity="0.18"/><text x="584.68" y="625.50" text-anchor="middle" font-size="13" font-weight="800" fill="#1d4ed8">R</text><rect x="657.14" y="606.00" width="27" height="28" rx="6" fill="#e8f7f0" stroke="#047857" stroke-opacity="0.18"/><text x="670.64" y="625.50" text-anchor="middle" font-size="13" font-weight="800" fill="#047857">C</text><rect x="688.14" y="606.00" width="27" height="28" rx="6" fill="#eef6ff" stroke="#1d4ed8" stroke-opacity="0.18"/><text x="701.64" y="625.50" text-anchor="middle" font-size="13" font-weight="800" fill="#1d4ed8">R</text><rect x="719.14" y="606.00" width="27" height="28" rx="6" fill="#fff7e6" stroke="#b7791f" stroke-opacity="0.18"/><text x="732.64" y="625.50" text-anchor="middle" font-size="13" font-weight="800" fill="#b7791f">U</text><rect x="750.14" y="606.00" width="31" height="28" rx="6" fill="#fff1f2" stroke="#be123c" stroke-opacity="0.18"/><text x="765.64" y="625.50" text-anchor="middle" font-size="13" font-weight="800" fill="#be123c">D*</text><rect x="926.05" y="606.00" width="27" height="28" rx="6" fill="#e8f7f0" stroke="#047857" stroke-opacity="0.18"/><text x="939.55" y="625.50" text-anchor="middle" font-size="13" font-weight="800" fill="#047857">C</text><rect x="957.05" y="606.00" width="27" height="28" rx="6" fill="#eef6ff" stroke="#1d4ed8" stroke-opacity="0.18"/><text x="970.55" y="625.50" text-anchor="middle" font-size="13" font-weight="800" fill="#1d4ed8">R</text><rect x="988.05" y="606.00" width="27" height="28" rx="6" fill="#fff7e6" stroke="#b7791f" stroke-opacity="0.18"/><text x="1001.55" y="625.50" text-anchor="middle" font-size="13" font-weight="800" fill="#b7791f">U</text><rect x="1019.05" y="606.00" width="31" height="28" rx="6" fill="#fff1f2" stroke="#be123c" stroke-opacity="0.18"/><text x="1034.55" y="625.50" text-anchor="middle" font-size="13" font-weight="800" fill="#be123c">D*</text><rect x="1109.00" y="606.00" width="27" height="28" rx="6" fill="#eef6ff" stroke="#1d4ed8" stroke-opacity="0.18"/><text x="1122.50" y="625.50" text-anchor="middle" font-size="13" font-weight="800" fill="#1d4ed8">R</text><rect x="1241.45" y="606.00" width="31" height="28" rx="6" fill="#f3f0ff" stroke="#6d28d9" stroke-opacity="0.18"/><text x="1256.95" y="625.50" text-anchor="middle" font-size="13" font-weight="800" fill="#6d28d9">C*</text><rect x="1375.91" y="606.00" width="31" height="28" rx="6" fill="#f3f0ff" stroke="#6d28d9" stroke-opacity="0.18"/><text x="1391.41" y="625.50" text-anchor="middle" font-size="13" font-weight="800" fill="#6d28d9">C*</text><rect x="58" y="649" width="1804" height="58" fill="#f8fafc"/><line x1="58" y1="707" x2="1862" y2="707" stroke="#d9e0e8"/><text x="76.00" y="683.00" text-anchor="start" font-size="15" font-weight="700" fill="#17212b"><tspan x="76.00" dy="0">PreOrder Management</tspan></text><rect x="571.18" y="664.00" width="27" height="28" rx="6" fill="#eef6ff" stroke="#1d4ed8" stroke-opacity="0.18"/><text x="584.68" y="683.50" text-anchor="middle" font-size="13" font-weight="800" fill="#1d4ed8">R</text><rect x="657.14" y="664.00" width="27" height="28" rx="6" fill="#e8f7f0" stroke="#047857" stroke-opacity="0.18"/><text x="670.64" y="683.50" text-anchor="middle" font-size="13" font-weight="800" fill="#047857">C</text><rect x="688.14" y="664.00" width="27" height="28" rx="6" fill="#eef6ff" stroke="#1d4ed8" stroke-opacity="0.18"/><text x="701.64" y="683.50" text-anchor="middle" font-size="13" font-weight="800" fill="#1d4ed8">R</text><rect x="719.14" y="664.00" width="27" height="28" rx="6" fill="#fff7e6" stroke="#b7791f" stroke-opacity="0.18"/><text x="732.64" y="683.50" text-anchor="middle" font-size="13" font-weight="800" fill="#b7791f">U</text><rect x="750.14" y="664.00" width="31" height="28" rx="6" fill="#fff1f2" stroke="#be123c" stroke-opacity="0.18"/><text x="765.64" y="683.50" text-anchor="middle" font-size="13" font-weight="800" fill="#be123c">D*</text><rect x="791.59" y="664.00" width="27" height="28" rx="6" fill="#e8f7f0" stroke="#047857" stroke-opacity="0.18"/><text x="805.09" y="683.50" text-anchor="middle" font-size="13" font-weight="800" fill="#047857">C</text><rect x="822.59" y="664.00" width="27" height="28" rx="6" fill="#eef6ff" stroke="#1d4ed8" stroke-opacity="0.18"/><text x="836.09" y="683.50" text-anchor="middle" font-size="13" font-weight="800" fill="#1d4ed8">R</text><rect x="853.59" y="664.00" width="27" height="28" rx="6" fill="#fff7e6" stroke="#b7791f" stroke-opacity="0.18"/><text x="867.09" y="683.50" text-anchor="middle" font-size="13" font-weight="800" fill="#b7791f">U</text><rect x="884.59" y="664.00" width="31" height="28" rx="6" fill="#fff1f2" stroke="#be123c" stroke-opacity="0.18"/><text x="900.09" y="683.50" text-anchor="middle" font-size="13" font-weight="800" fill="#be123c">D*</text><rect x="926.05" y="664.00" width="27" height="28" rx="6" fill="#e8f7f0" stroke="#047857" stroke-opacity="0.18"/><text x="939.55" y="683.50" text-anchor="middle" font-size="13" font-weight="800" fill="#047857">C</text><rect x="957.05" y="664.00" width="27" height="28" rx="6" fill="#eef6ff" stroke="#1d4ed8" stroke-opacity="0.18"/><text x="970.55" y="683.50" text-anchor="middle" font-size="13" font-weight="800" fill="#1d4ed8">R</text><rect x="988.05" y="664.00" width="27" height="28" rx="6" fill="#fff7e6" stroke="#b7791f" stroke-opacity="0.18"/><text x="1001.55" y="683.50" text-anchor="middle" font-size="13" font-weight="800" fill="#b7791f">U</text><rect x="1019.05" y="664.00" width="31" height="28" rx="6" fill="#fff1f2" stroke="#be123c" stroke-opacity="0.18"/><text x="1034.55" y="683.50" text-anchor="middle" font-size="13" font-weight="800" fill="#be123c">D*</text><rect x="1109.00" y="664.00" width="27" height="28" rx="6" fill="#eef6ff" stroke="#1d4ed8" stroke-opacity="0.18"/><text x="1122.50" y="683.50" text-anchor="middle" font-size="13" font-weight="800" fill="#1d4ed8">R</text><rect x="1241.45" y="664.00" width="31" height="28" rx="6" fill="#f3f0ff" stroke="#6d28d9" stroke-opacity="0.18"/><text x="1256.95" y="683.50" text-anchor="middle" font-size="13" font-weight="800" fill="#6d28d9">C*</text><rect x="1375.91" y="664.00" width="31" height="28" rx="6" fill="#f3f0ff" stroke="#6d28d9" stroke-opacity="0.18"/><text x="1391.41" y="683.50" text-anchor="middle" font-size="13" font-weight="800" fill="#6d28d9">C*</text><line x1="58" y1="765" x2="1862" y2="765" stroke="#d9e0e8"/><text x="76.00" y="741.00" text-anchor="start" font-size="15" font-weight="700" fill="#17212b"><tspan x="76.00" dy="0">Manager Approval</tspan></text><rect x="571.18" y="722.00" width="27" height="28" rx="6" fill="#eef6ff" stroke="#1d4ed8" stroke-opacity="0.18"/><text x="584.68" y="741.50" text-anchor="middle" font-size="13" font-weight="800" fill="#1d4ed8">R</text><rect x="690.14" y="722.00" width="27" height="28" rx="6" fill="#eef6ff" stroke="#1d4ed8" stroke-opacity="0.18"/><text x="703.64" y="741.50" text-anchor="middle" font-size="13" font-weight="800" fill="#1d4ed8">R</text><rect x="721.14" y="722.00" width="27" height="28" rx="6" fill="#fff7e6" stroke="#b7791f" stroke-opacity="0.18"/><text x="734.64" y="741.50" text-anchor="middle" font-size="13" font-weight="800" fill="#b7791f">U</text><rect x="824.59" y="722.00" width="27" height="28" rx="6" fill="#eef6ff" stroke="#1d4ed8" stroke-opacity="0.18"/><text x="838.09" y="741.50" text-anchor="middle" font-size="13" font-weight="800" fill="#1d4ed8">R</text><rect x="855.59" y="722.00" width="27" height="28" rx="6" fill="#fff7e6" stroke="#b7791f" stroke-opacity="0.18"/><text x="869.09" y="741.50" text-anchor="middle" font-size="13" font-weight="800" fill="#b7791f">U</text><rect x="974.55" y="722.00" width="27" height="28" rx="6" fill="#eef6ff" stroke="#1d4ed8" stroke-opacity="0.18"/><text x="988.05" y="741.50" text-anchor="middle" font-size="13" font-weight="800" fill="#1d4ed8">R</text><rect x="1241.45" y="722.00" width="31" height="28" rx="6" fill="#f3f0ff" stroke="#6d28d9" stroke-opacity="0.18"/><text x="1256.95" y="741.50" text-anchor="middle" font-size="13" font-weight="800" fill="#6d28d9">C*</text><rect x="1375.91" y="722.00" width="31" height="28" rx="6" fill="#f3f0ff" stroke="#6d28d9" stroke-opacity="0.18"/><text x="1391.41" y="741.50" text-anchor="middle" font-size="13" font-weight="800" fill="#6d28d9">C*</text><rect x="58" y="765" width="1804" height="58" fill="#f8fafc"/><line x1="58" y1="823" x2="1862" y2="823" stroke="#d9e0e8"/><text x="76.00" y="799.00" text-anchor="start" font-size="15" font-weight="700" fill="#17212b"><tspan x="76.00" dy="0">Invoice Management</tspan></text><rect x="571.18" y="780.00" width="27" height="28" rx="6" fill="#eef6ff" stroke="#1d4ed8" stroke-opacity="0.18"/><text x="584.68" y="799.50" text-anchor="middle" font-size="13" font-weight="800" fill="#1d4ed8">R</text><rect x="690.14" y="780.00" width="27" height="28" rx="6" fill="#eef6ff" stroke="#1d4ed8" stroke-opacity="0.18"/><text x="703.64" y="799.50" text-anchor="middle" font-size="13" font-weight="800" fill="#1d4ed8">R</text><rect x="721.14" y="780.00" width="27" height="28" rx="6" fill="#fff7e6" stroke="#b7791f" stroke-opacity="0.18"/><text x="734.64" y="799.50" text-anchor="middle" font-size="13" font-weight="800" fill="#b7791f">U</text><rect x="840.09" y="780.00" width="27" height="28" rx="6" fill="#eef6ff" stroke="#1d4ed8" stroke-opacity="0.18"/><text x="853.59" y="799.50" text-anchor="middle" font-size="13" font-weight="800" fill="#1d4ed8">R</text><rect x="974.55" y="780.00" width="27" height="28" rx="6" fill="#eef6ff" stroke="#1d4ed8" stroke-opacity="0.18"/><text x="988.05" y="799.50" text-anchor="middle" font-size="13" font-weight="800" fill="#1d4ed8">R</text><rect x="1241.45" y="780.00" width="31" height="28" rx="6" fill="#f3f0ff" stroke="#6d28d9" stroke-opacity="0.18"/><text x="1256.95" y="799.50" text-anchor="middle" font-size="13" font-weight="800" fill="#6d28d9">C*</text><rect x="1329.41" y="780.00" width="27" height="28" rx="6" fill="#e8f7f0" stroke="#047857" stroke-opacity="0.18"/><text x="1342.91" y="799.50" text-anchor="middle" font-size="13" font-weight="800" fill="#047857">C</text><rect x="1360.41" y="780.00" width="27" height="28" rx="6" fill="#eef6ff" stroke="#1d4ed8" stroke-opacity="0.18"/><text x="1373.91" y="799.50" text-anchor="middle" font-size="13" font-weight="800" fill="#1d4ed8">R</text><rect x="1391.41" y="780.00" width="27" height="28" rx="6" fill="#fff7e6" stroke="#b7791f" stroke-opacity="0.18"/><text x="1404.91" y="799.50" text-anchor="middle" font-size="13" font-weight="800" fill="#b7791f">U</text><rect x="1422.41" y="780.00" width="31" height="28" rx="6" fill="#fff1f2" stroke="#be123c" stroke-opacity="0.18"/><text x="1437.91" y="799.50" text-anchor="middle" font-size="13" font-weight="800" fill="#be123c">D*</text><rect x="1494.86" y="780.00" width="27" height="28" rx="6" fill="#eef6ff" stroke="#1d4ed8" stroke-opacity="0.18"/><text x="1508.36" y="799.50" text-anchor="middle" font-size="13" font-weight="800" fill="#1d4ed8">R</text><rect x="1525.86" y="780.00" width="31" height="28" rx="6" fill="#fff1f2" stroke="#be123c" stroke-opacity="0.18"/><text x="1541.36" y="799.50" text-anchor="middle" font-size="13" font-weight="800" fill="#be123c">D*</text><line x1="58" y1="881" x2="1862" y2="881" stroke="#d9e0e8"/><text x="76.00" y="857.00" text-anchor="start" font-size="15" font-weight="700" fill="#17212b"><tspan x="76.00" dy="0">Payment Management</tspan></text><rect x="571.18" y="838.00" width="27" height="28" rx="6" fill="#eef6ff" stroke="#1d4ed8" stroke-opacity="0.18"/><text x="584.68" y="857.50" text-anchor="middle" font-size="13" font-weight="800" fill="#1d4ed8">R</text><rect x="705.64" y="838.00" width="27" height="28" rx="6" fill="#eef6ff" stroke="#1d4ed8" stroke-opacity="0.18"/><text x="719.14" y="857.50" text-anchor="middle" font-size="13" font-weight="800" fill="#1d4ed8">R</text><rect x="840.09" y="838.00" width="27" height="28" rx="6" fill="#eef6ff" stroke="#1d4ed8" stroke-opacity="0.18"/><text x="853.59" y="857.50" text-anchor="middle" font-size="13" font-weight="800" fill="#1d4ed8">R</text><rect x="1362.41" y="838.00" width="27" height="28" rx="6" fill="#eef6ff" stroke="#1d4ed8" stroke-opacity="0.18"/><text x="1375.91" y="857.50" text-anchor="middle" font-size="13" font-weight="800" fill="#1d4ed8">R</text><rect x="1393.41" y="838.00" width="27" height="28" rx="6" fill="#fff7e6" stroke="#b7791f" stroke-opacity="0.18"/><text x="1406.91" y="857.50" text-anchor="middle" font-size="13" font-weight="800" fill="#b7791f">U</text><rect x="1479.36" y="838.00" width="27" height="28" rx="6" fill="#e8f7f0" stroke="#047857" stroke-opacity="0.18"/><text x="1492.86" y="857.50" text-anchor="middle" font-size="13" font-weight="800" fill="#047857">C</text><rect x="1510.36" y="838.00" width="27" height="28" rx="6" fill="#eef6ff" stroke="#1d4ed8" stroke-opacity="0.18"/><text x="1523.86" y="857.50" text-anchor="middle" font-size="13" font-weight="800" fill="#1d4ed8">R</text><rect x="1541.36" y="838.00" width="31" height="28" rx="6" fill="#fff1f2" stroke="#be123c" stroke-opacity="0.18"/><text x="1556.86" y="857.50" text-anchor="middle" font-size="13" font-weight="800" fill="#be123c">D*</text><rect x="58" y="881" width="1804" height="58" fill="#f8fafc"/><line x1="58" y1="939" x2="1862" y2="939" stroke="#d9e0e8"/><text x="76.00" y="915.00" text-anchor="start" font-size="15" font-weight="700" fill="#17212b"><tspan x="76.00" dy="0">DeliveryNote Management</tspan></text><rect x="571.18" y="896.00" width="27" height="28" rx="6" fill="#eef6ff" stroke="#1d4ed8" stroke-opacity="0.18"/><text x="584.68" y="915.50" text-anchor="middle" font-size="13" font-weight="800" fill="#1d4ed8">R</text><rect x="705.64" y="896.00" width="27" height="28" rx="6" fill="#eef6ff" stroke="#1d4ed8" stroke-opacity="0.18"/><text x="719.14" y="915.50" text-anchor="middle" font-size="13" font-weight="800" fill="#1d4ed8">R</text><rect x="840.09" y="896.00" width="27" height="28" rx="6" fill="#eef6ff" stroke="#1d4ed8" stroke-opacity="0.18"/><text x="853.59" y="915.50" text-anchor="middle" font-size="13" font-weight="800" fill="#1d4ed8">R</text><rect x="974.55" y="896.00" width="27" height="28" rx="6" fill="#eef6ff" stroke="#1d4ed8" stroke-opacity="0.18"/><text x="988.05" y="915.50" text-anchor="middle" font-size="13" font-weight="800" fill="#1d4ed8">R</text><rect x="1377.91" y="896.00" width="27" height="28" rx="6" fill="#eef6ff" stroke="#1d4ed8" stroke-opacity="0.18"/><text x="1391.41" y="915.50" text-anchor="middle" font-size="13" font-weight="800" fill="#1d4ed8">R</text><rect x="1598.32" y="896.00" width="27" height="28" rx="6" fill="#e8f7f0" stroke="#047857" stroke-opacity="0.18"/><text x="1611.82" y="915.50" text-anchor="middle" font-size="13" font-weight="800" fill="#047857">C</text><rect x="1629.32" y="896.00" width="27" height="28" rx="6" fill="#eef6ff" stroke="#1d4ed8" stroke-opacity="0.18"/><text x="1642.82" y="915.50" text-anchor="middle" font-size="13" font-weight="800" fill="#1d4ed8">R</text><rect x="1660.32" y="896.00" width="27" height="28" rx="6" fill="#fff7e6" stroke="#b7791f" stroke-opacity="0.18"/><text x="1673.82" y="915.50" text-anchor="middle" font-size="13" font-weight="800" fill="#b7791f">U</text><rect x="1691.32" y="896.00" width="31" height="28" rx="6" fill="#fff1f2" stroke="#be123c" stroke-opacity="0.18"/><text x="1706.82" y="915.50" text-anchor="middle" font-size="13" font-weight="800" fill="#be123c">D*</text><rect x="1732.77" y="896.00" width="27" height="28" rx="6" fill="#e8f7f0" stroke="#047857" stroke-opacity="0.18"/><text x="1746.27" y="915.50" text-anchor="middle" font-size="13" font-weight="800" fill="#047857">C</text><rect x="1763.77" y="896.00" width="27" height="28" rx="6" fill="#eef6ff" stroke="#1d4ed8" stroke-opacity="0.18"/><text x="1777.27" y="915.50" text-anchor="middle" font-size="13" font-weight="800" fill="#1d4ed8">R</text><rect x="1794.77" y="896.00" width="27" height="28" rx="6" fill="#fff7e6" stroke="#b7791f" stroke-opacity="0.18"/><text x="1808.27" y="915.50" text-anchor="middle" font-size="13" font-weight="800" fill="#b7791f">U</text><rect x="1825.77" y="896.00" width="31" height="28" rx="6" fill="#fff1f2" stroke="#be123c" stroke-opacity="0.18"/><text x="1841.27" y="915.50" text-anchor="middle" font-size="13" font-weight="800" fill="#be123c">D*</text><line x1="58" y1="997" x2="1862" y2="997" stroke="#d9e0e8"/><text x="76.00" y="973.00" text-anchor="start" font-size="15" font-weight="700" fill="#17212b"><tspan x="76.00" dy="0">Receivable Monitoring</tspan></text><rect x="553.68" y="954.00" width="27" height="28" rx="6" fill="#eef6ff" stroke="#1d4ed8" stroke-opacity="0.18"/><text x="567.18" y="973.50" text-anchor="middle" font-size="13" font-weight="800" fill="#1d4ed8">R</text><rect x="584.68" y="954.00" width="31" height="28" rx="6" fill="#f3f0ff" stroke="#6d28d9" stroke-opacity="0.18"/><text x="600.18" y="973.50" text-anchor="middle" font-size="13" font-weight="800" fill="#6d28d9">U*</text><rect x="705.64" y="954.00" width="27" height="28" rx="6" fill="#eef6ff" stroke="#1d4ed8" stroke-opacity="0.18"/><text x="719.14" y="973.50" text-anchor="middle" font-size="13" font-weight="800" fill="#1d4ed8">R</text><rect x="840.09" y="954.00" width="27" height="28" rx="6" fill="#eef6ff" stroke="#1d4ed8" stroke-opacity="0.18"/><text x="853.59" y="973.50" text-anchor="middle" font-size="13" font-weight="800" fill="#1d4ed8">R</text><rect x="1243.45" y="954.00" width="27" height="28" rx="6" fill="#e8f7f0" stroke="#047857" stroke-opacity="0.18"/><text x="1256.95" y="973.50" text-anchor="middle" font-size="13" font-weight="800" fill="#047857">C</text><rect x="1362.41" y="954.00" width="27" height="28" rx="6" fill="#eef6ff" stroke="#1d4ed8" stroke-opacity="0.18"/><text x="1375.91" y="973.50" text-anchor="middle" font-size="13" font-weight="800" fill="#1d4ed8">R</text><rect x="1393.41" y="954.00" width="27" height="28" rx="6" fill="#fff7e6" stroke="#b7791f" stroke-opacity="0.18"/><text x="1406.91" y="973.50" text-anchor="middle" font-size="13" font-weight="800" fill="#b7791f">U</text><rect x="1512.36" y="954.00" width="27" height="28" rx="6" fill="#eef6ff" stroke="#1d4ed8" stroke-opacity="0.18"/><text x="1525.86" y="973.50" text-anchor="middle" font-size="13" font-weight="800" fill="#1d4ed8">R</text><rect x="58" y="997" width="1804" height="58" fill="#f8fafc"/><line x1="58" y1="1055" x2="1862" y2="1055" stroke="#d9e0e8"/><text x="76.00" y="1031.00" text-anchor="start" font-size="15" font-weight="700" fill="#17212b"><tspan x="76.00" dy="0">FollowUp Management</tspan></text><rect x="571.18" y="1012.00" width="27" height="28" rx="6" fill="#eef6ff" stroke="#1d4ed8" stroke-opacity="0.18"/><text x="584.68" y="1031.50" text-anchor="middle" font-size="13" font-weight="800" fill="#1d4ed8">R</text><rect x="1194.95" y="1012.00" width="27" height="28" rx="6" fill="#e8f7f0" stroke="#047857" stroke-opacity="0.18"/><text x="1208.45" y="1031.50" text-anchor="middle" font-size="13" font-weight="800" fill="#047857">C</text><rect x="1225.95" y="1012.00" width="27" height="28" rx="6" fill="#eef6ff" stroke="#1d4ed8" stroke-opacity="0.18"/><text x="1239.45" y="1031.50" text-anchor="middle" font-size="13" font-weight="800" fill="#1d4ed8">R</text><rect x="1256.95" y="1012.00" width="27" height="28" rx="6" fill="#fff7e6" stroke="#b7791f" stroke-opacity="0.18"/><text x="1270.45" y="1031.50" text-anchor="middle" font-size="13" font-weight="800" fill="#b7791f">U</text><rect x="1287.95" y="1012.00" width="31" height="28" rx="6" fill="#fff1f2" stroke="#be123c" stroke-opacity="0.18"/><text x="1303.45" y="1031.50" text-anchor="middle" font-size="13" font-weight="800" fill="#be123c">D*</text><rect x="1377.91" y="1012.00" width="27" height="28" rx="6" fill="#eef6ff" stroke="#1d4ed8" stroke-opacity="0.18"/><text x="1391.41" y="1031.50" text-anchor="middle" font-size="13" font-weight="800" fill="#1d4ed8">R</text><text x="58" y="1105" font-size="18" font-weight="800" fill="#17212b">Important Notes</text><circle cx="64" cy="1133" r="4" fill="#1f5f6f"/><text x="80" y="1139" font-size="16" font-weight="550" fill="#64748b">PreOrder is a specialization of SalesOrder and adds requiredDate plus PO document attributes.</text><circle cx="64" cy="1163" r="4" fill="#1f5f6f"/><text x="80" y="1169" font-size="16" font-weight="550" fill="#64748b">Receivable is derived from Invoice remainingAmount, status, and dueDate; it is not a separate class.</text><circle cx="64" cy="1193" r="4" fill="#1f5f6f"/><text x="80" y="1199" font-size="16" font-weight="550" fill="#64748b">Restricted deletion removes related SalesOrderItem, Invoice, Payment, FollowUp, DeliveryNote, and DeliveryNoteItem records.</text><circle cx="64" cy="1223" r="4" fill="#1f5f6f"/><text x="80" y="1229" font-size="16" font-weight="550" fill="#64748b">AuditTrail exists in the app but is omitted here because it is not shown in the provided class diagram.</text></svg>
