<svg xmlns="http://www.w3.org/2000/svg" xmlns:xlink="http://www.w3.org/1999/xlink" version="1.1" data-diagram-type="ACTIVITY" style="width:1864px;height:1702px;background:#FFFFFF;" width="1864px" height="1702px" viewBox="0 0 1864 1702" zoomAndPan="magnify" preserveAspectRatio="none" contentStyleType="text/css"><?plantuml 1.2026.7beta6?><defs/><g font-family="sans-serif" lengthAdjust="spacing"><g class="title" data-source-line="1"><text x="731.207" y="32.995" fill="#000" font-size="14" textLength="399.943" font-weight="700">CV Tajuk Revenue Cycle System - Activity Diagram</text></g><rect x="20" y="55.042" width="1817.357" height="20.953" fill="none" style="stroke:none;"/><ellipse cx="256.89" cy="90.995" rx="10" ry="10" fill="#222" style="stroke:#222;stroke-width:1;"/><rect x="136.473" y="120.995" width="240.834" height="33.969" fill="#F1F1F1" style="stroke:#181818;stroke-width:0.5;" rx="12.5" ry="12.5"/><text x="146.473" y="142.134" fill="#000" font-size="12" textLength="220.834">Maintain Customer and Product data</text><rect x="171.128" y="174.964" width="171.523" height="33.969" fill="#F1F1F1" style="stroke:#181818;stroke-width:0.5;" rx="12.5" ry="12.5"/><text x="181.128" y="196.103" fill="#000" font-size="12" textLength="151.523">Create a new transaction</text><polygon points="204.396,228.933,309.385,228.933,321.385,240.933,309.385,252.933,204.396,252.933,192.396,240.933,204.396,228.933" fill="#F1F1F1" style="stroke:#181818;stroke-width:0.5;stroke-linejoin:miter;stroke-miterlimit:10;"/><text x="204.396" y="244.741" fill="#000" font-size="11" textLength="104.989">Is this a Pre Order?</text><text x="173.178" y="238.338" fill="#000" font-size="11" textLength="19.218">Yes</text><text x="321.385" y="238.338" fill="#000" font-size="11" textLength="14.958">No</text><rect x="26" y="272.933" width="231.178" height="47.938" fill="#F1F1F1" style="stroke:#181818;stroke-width:0.5;" rx="12.5" ry="12.5"/><text x="36" y="294.071" fill="#000" font-size="12" textLength="211.178">Enter manual PO ID, required date,</text><text x="36" y="308.04" fill="#000" font-size="12" textLength="175.623">and upload the PO document</text><polygon points="256.89,330.87,268.89,342.87,256.89,354.87,244.89,342.87,256.89,330.87" fill="#F1F1F1" style="stroke:#181818;stroke-width:0.5;stroke-linejoin:miter;stroke-miterlimit:10;"/><rect x="145.028" y="374.87" width="223.725" height="33.969" fill="#F1F1F1" style="stroke:#181818;stroke-width:0.5;" rx="12.5" ry="12.5"/><text x="155.028" y="396.009" fill="#000" font-size="12" textLength="203.725">Select the customer and products</text><rect x="144.773" y="428.839" width="224.234" height="47.938" fill="#F1F1F1" style="stroke:#181818;stroke-width:0.5;" rx="12.5" ry="12.5"/><text x="154.773" y="449.978" fill="#000" font-size="12" textLength="204.234">Edit Base Price and enter optional</text><text x="154.773" y="463.946" fill="#000" font-size="12" textLength="117.398">Markup or Discount</text><rect x="259.771" y="1287.3" width="189.998" height="33.969" fill="#F1F1F1" style="stroke:#181818;stroke-width:0.5;" rx="12.5" ry="12.5"/><text x="269.771" y="1308.438" fill="#000" font-size="12" textLength="169.998">Perform the billing follow-up</text><line x1="20" y1="55.042" x2="20" y2="1681.081" style="stroke:#000;stroke-width:1.5;"/><rect x="644.996" y="272.933" width="190.027" height="33.969" fill="#F1F1F1" style="stroke:#181818;stroke-width:0.5;" rx="12.5" ry="12.5"/><text x="654.996" y="294.071" fill="#000" font-size="12" textLength="170.027">Generate the Sales Order ID</text><rect x="527.094" y="496.776" width="195.23" height="33.969" fill="#F1F1F1" style="stroke:#181818;stroke-width:0.5;" rx="12.5" ry="12.5"/><text x="537.094" y="517.915" fill="#000" font-size="12" textLength="175.23">Calculate Unit Price and total</text><rect x="513.362" y="550.745" width="222.693" height="33.969" fill="#F1F1F1" style="stroke:#181818;stroke-width:0.5;" rx="12.5" ry="12.5"/><text x="523.362" y="571.884" fill="#000" font-size="12" textLength="202.693">Validate and save the transaction</text><rect x="515.492" y="653.116" width="218.434" height="33.969" fill="#F1F1F1" style="stroke:#181818;stroke-width:0.5;" rx="12.5" ry="12.5"/><text x="525.492" y="674.255" fill="#000" font-size="12" textLength="198.434">Send the required-date reminder</text><polygon points="572.214,604.714,677.203,604.714,689.203,616.714,677.203,628.714,572.214,628.714,560.214,616.714,572.214,604.714" fill="#F1F1F1" style="stroke:#181818;stroke-width:0.5;stroke-linejoin:miter;stroke-miterlimit:10;"/><text x="628.709" y="638.924" fill="#000" font-size="11" textLength="19.218">Yes</text><text x="572.214" y="620.522" fill="#000" font-size="11" textLength="104.989">Is this a Pre Order?</text><polygon points="624.709,707.085,636.709,719.085,624.709,731.085,612.709,719.085,624.709,707.085" fill="#F1F1F1" style="stroke:#181818;stroke-width:0.5;stroke-linejoin:miter;stroke-miterlimit:10;"/><rect x="517.062" y="751.085" width="215.293" height="33.969" fill="#F1F1F1" style="stroke:#181818;stroke-width:0.5;" rx="12.5" ry="12.5"/><text x="527.062" y="772.224" fill="#000" font-size="12" textLength="195.293">Evaluate customer payment risk</text><polygon points="540.53,805.054,708.887,805.054,720.887,817.054,708.887,829.054,540.53,829.054,528.53,817.054,540.53,805.054" fill="#F1F1F1" style="stroke:#181818;stroke-width:0.5;stroke-linejoin:miter;stroke-miterlimit:10;"/><text x="628.709" y="839.264" fill="#000" font-size="11" textLength="19.218">Yes</text><text x="540.53" y="820.862" fill="#000" font-size="11" textLength="168.357">Is Manager approval required?</text><polygon points="624.709,1037.394,636.709,1049.394,624.709,1061.394,612.709,1049.394,624.709,1037.394" fill="#F1F1F1" style="stroke:#181818;stroke-width:0.5;stroke-linejoin:miter;stroke-miterlimit:10;"/><rect x="548.067" y="1135.362" width="153.283" height="33.969" fill="#F1F1F1" style="stroke:#181818;stroke-width:0.5;" rx="12.5" ry="12.5"/><text x="558.067" y="1156.501" fill="#000" font-size="12" textLength="133.283">Create the Receivable</text><polygon points="548.829,1189.331,700.589,1189.331,712.589,1201.331,700.589,1213.331,548.829,1213.331,536.829,1201.331,548.829,1189.331" fill="#F1F1F1" style="stroke:#181818;stroke-width:0.5;stroke-linejoin:miter;stroke-miterlimit:10;"/><text x="548.829" y="1205.139" fill="#000" font-size="11" textLength="151.76">Is the payment term Debit?</text><text x="517.611" y="1198.737" fill="#000" font-size="11" textLength="19.218">Yes</text><text x="712.589" y="1198.737" fill="#000" font-size="11" textLength="14.958">No</text><rect x="623.89" y="1233.331" width="197.398" height="33.969" fill="#F1F1F1" style="stroke:#181818;stroke-width:0.5;" rx="12.5" ry="12.5"/><text x="633.89" y="1254.47" fill="#000" font-size="12" textLength="177.398">Schedule the billing follow-up</text><polygon points="624.709,1385.237,636.709,1397.237,624.709,1409.237,612.709,1397.237,624.709,1385.237" fill="#F1F1F1" style="stroke:#181818;stroke-width:0.5;stroke-linejoin:miter;stroke-miterlimit:10;"/><rect x="501.262" y="1429.237" width="246.893" height="33.969" fill="#F1F1F1" style="stroke:#181818;stroke-width:0.5;" rx="12.5" ry="12.5"/><text x="511.262" y="1450.376" fill="#000" font-size="12" textLength="226.893">Update Invoice and Receivable status</text><rect x="486.769" y="1537.175" width="275.879" height="47.938" fill="#F1F1F1" style="stroke:#181818;stroke-width:0.5;" rx="12.5" ry="12.5"/><text x="496.769" y="1558.313" fill="#000" font-size="12" textLength="255.879">Generate printable Invoice and Surat Jalan</text><text x="496.769" y="1572.282" fill="#000" font-size="12" textLength="218.361">with transaction type and PO details</text><line x1="453.769" y1="55.042" x2="453.769" y2="1681.081" style="stroke:#000;stroke-width:1.5;"/><rect x="949.304" y="853.456" width="158.463" height="33.969" fill="#F1F1F1" style="stroke:#181818;stroke-width:0.5;" rx="12.5" ry="12.5"/><text x="959.304" y="874.595" fill="#000" font-size="12" textLength="138.463">Review the transaction</text><polygon points="949.68,907.425,1107.391,907.425,1119.391,919.425,1107.391,931.425,949.68,931.425,937.68,919.425,949.68,907.425" fill="#F1F1F1" style="stroke:#181818;stroke-width:0.5;stroke-linejoin:miter;stroke-miterlimit:10;"/><text x="949.68" y="923.233" fill="#000" font-size="11" textLength="157.711">Is the transaction approved?</text><text x="918.462" y="916.831" fill="#000" font-size="11" textLength="19.218">Yes</text><text x="1119.391" y="916.831" fill="#000" font-size="11" textLength="14.958">No</text><rect x="845.024" y="941.425" width="165.313" height="33.969" fill="#F1F1F1" style="stroke:#181818;stroke-width:0.5;" rx="12.5" ry="12.5"/><text x="855.024" y="962.563" fill="#000" font-size="12" textLength="145.313">Approve the transaction</text><rect x="1052.967" y="941.425" width="152.85" height="33.969" fill="#F1F1F1" style="stroke:#181818;stroke-width:0.5;" rx="12.5" ry="12.5"/><text x="1062.967" y="962.563" fill="#000" font-size="12" textLength="132.85">Reject the transaction</text><ellipse cx="1129.391" cy="1006.394" rx="11" ry="11" fill="none" style="stroke:#222;stroke-width:1;"/><ellipse cx="1129.391" cy="1006.394" rx="6" ry="6" fill="#222" style="stroke:#222;stroke-width:1;"/><line x1="839.024" y1="55.042" x2="839.024" y2="1681.081" style="stroke:#000;stroke-width:1.5;"/><rect x="1312.056" y="1081.394" width="146.27" height="33.969" fill="#F1F1F1" style="stroke:#181818;stroke-width:0.5;" rx="12.5" ry="12.5"/><text x="1322.056" y="1102.532" fill="#000" font-size="12" textLength="126.27">Generate the Invoice</text><rect x="1215.816" y="1233.331" width="142.988" height="33.969" fill="#F1F1F1" style="stroke:#181818;stroke-width:0.5;" rx="12.5" ry="12.5"/><text x="1225.816" y="1254.47" fill="#000" font-size="12" textLength="122.988">Record the payment</text><rect x="1382.906" y="1341.269" width="200.328" height="33.969" fill="#F1F1F1" style="stroke:#181818;stroke-width:0.5;" rx="12.5" ry="12.5"/><text x="1392.906" y="1362.407" fill="#000" font-size="12" textLength="180.328">Record partial or full payment</text><rect x="1308.854" y="1483.206" width="152.674" height="33.969" fill="#F1F1F1" style="stroke:#181818;stroke-width:0.5;" rx="12.5" ry="12.5"/><text x="1318.854" y="1504.345" fill="#000" font-size="12" textLength="132.674">Create the Surat Jalan</text><line x1="1209.816" y1="55.042" x2="1209.816" y2="1681.081" style="stroke:#000;stroke-width:1.5;"/><rect x="1593.235" y="1605.112" width="238.262" height="33.969" fill="#F1F1F1" style="stroke:#181818;stroke-width:0.5;" rx="12.5" ry="12.5"/><text x="1603.235" y="1626.251" fill="#000" font-size="12" textLength="218.262">Receive the product and documents</text><ellipse cx="1712.365" cy="1670.081" rx="11" ry="11" fill="none" style="stroke:#222;stroke-width:1;"/><ellipse cx="1712.365" cy="1670.081" rx="6" ry="6" fill="#222" style="stroke:#222;stroke-width:1;"/><line x1="1587.235" y1="55.042" x2="1587.235" y2="1681.081" style="stroke:#000;stroke-width:1.5;"/><line x1="1835.496" y1="55.042" x2="1835.496" y2="1681.081" style="stroke:#000;stroke-width:1.5;"/><line x1="256.89" y1="100.995" x2="256.89" y2="120.995" style="stroke:#181818;stroke-width:1;"/><polygon points="252.89,110.995,256.89,120.995,260.89,110.995,256.89,114.995" fill="#181818" style="stroke:#181818;stroke-width:1;stroke-linejoin:miter;stroke-miterlimit:10;"/><line x1="256.89" y1="154.964" x2="256.89" y2="174.964" style="stroke:#181818;stroke-width:1;"/><polygon points="252.89,164.964,256.89,174.964,260.89,164.964,256.89,168.964" fill="#181818" style="stroke:#181818;stroke-width:1;stroke-linejoin:miter;stroke-miterlimit:10;"/><line x1="192.396" y1="240.933" x2="141.589" y2="240.933" style="stroke:#181818;stroke-width:1;"/><line x1="141.589" y1="240.933" x2="141.589" y2="272.933" style="stroke:#181818;stroke-width:1;"/><polygon points="137.589,262.933,141.589,272.933,145.589,262.933,141.589,266.933" fill="#181818" style="stroke:#181818;stroke-width:1;stroke-linejoin:miter;stroke-miterlimit:10;"/><line x1="141.589" y1="320.87" x2="141.589" y2="342.87" style="stroke:#181818;stroke-width:1;"/><line x1="141.589" y1="342.87" x2="244.89" y2="342.87" style="stroke:#181818;stroke-width:1;"/><polygon points="234.89,338.87,244.89,342.87,234.89,346.87,238.89,342.87" fill="#181818" style="stroke:#181818;stroke-width:1;stroke-linejoin:miter;stroke-miterlimit:10;"/><line x1="256.89" y1="208.933" x2="256.89" y2="228.933" style="stroke:#181818;stroke-width:1;"/><polygon points="252.89,218.933,256.89,228.933,260.89,218.933,256.89,222.933" fill="#181818" style="stroke:#181818;stroke-width:1;stroke-linejoin:miter;stroke-miterlimit:10;"/><line x1="256.89" y1="354.87" x2="256.89" y2="374.87" style="stroke:#181818;stroke-width:1;"/><polygon points="252.89,364.87,256.89,374.87,260.89,364.87,256.89,368.87" fill="#181818" style="stroke:#181818;stroke-width:1;stroke-linejoin:miter;stroke-miterlimit:10;"/><line x1="256.89" y1="408.839" x2="256.89" y2="428.839" style="stroke:#181818;stroke-width:1;"/><polygon points="252.89,418.839,256.89,428.839,260.89,418.839,256.89,422.839" fill="#181818" style="stroke:#181818;stroke-width:1;stroke-linejoin:miter;stroke-miterlimit:10;"/><line x1="624.709" y1="530.745" x2="624.709" y2="550.745" style="stroke:#181818;stroke-width:1;"/><polygon points="620.709,540.745,624.709,550.745,628.709,540.745,624.709,544.745" fill="#181818" style="stroke:#181818;stroke-width:1;stroke-linejoin:miter;stroke-miterlimit:10;"/><line x1="624.709" y1="628.714" x2="624.709" y2="653.116" style="stroke:#181818;stroke-width:1;"/><polygon points="620.709,643.116,624.709,653.116,628.709,643.116,624.709,647.116" fill="#181818" style="stroke:#181818;stroke-width:1;stroke-linejoin:miter;stroke-miterlimit:10;"/><line x1="689.203" y1="616.714" x2="743.926" y2="616.714" style="stroke:#181818;stroke-width:1;"/><polygon points="739.926,660.101,743.926,670.101,747.926,660.101,743.926,664.101" fill="#181818" style="stroke:#181818;stroke-width:1;stroke-linejoin:miter;stroke-miterlimit:10;"/><line x1="743.926" y1="616.714" x2="743.926" y2="719.085" style="stroke:#181818;stroke-width:1;"/><line x1="743.926" y1="719.085" x2="636.709" y2="719.085" style="stroke:#181818;stroke-width:1;"/><polygon points="646.709,715.085,636.709,719.085,646.709,723.085,642.709,719.085" fill="#181818" style="stroke:#181818;stroke-width:1;stroke-linejoin:miter;stroke-miterlimit:10;"/><line x1="624.709" y1="687.085" x2="624.709" y2="707.085" style="stroke:#181818;stroke-width:1;"/><polygon points="620.709,697.085,624.709,707.085,628.709,697.085,624.709,701.085" fill="#181818" style="stroke:#181818;stroke-width:1;stroke-linejoin:miter;stroke-miterlimit:10;"/><line x1="624.709" y1="584.714" x2="624.709" y2="604.714" style="stroke:#181818;stroke-width:1;"/><polygon points="620.709,594.714,624.709,604.714,628.709,594.714,624.709,598.714" fill="#181818" style="stroke:#181818;stroke-width:1;stroke-linejoin:miter;stroke-miterlimit:10;"/><line x1="624.709" y1="731.085" x2="624.709" y2="751.085" style="stroke:#181818;stroke-width:1;"/><polygon points="620.709,741.085,624.709,751.085,628.709,741.085,624.709,745.085" fill="#181818" style="stroke:#181818;stroke-width:1;stroke-linejoin:miter;stroke-miterlimit:10;"/><line x1="528.53" y1="817.054" x2="472.769" y2="817.054" style="stroke:#181818;stroke-width:1;"/><polygon points="468.769,928.425,472.769,938.425,476.769,928.425,472.769,932.425" fill="#181818" style="stroke:#181818;stroke-width:1;stroke-linejoin:miter;stroke-miterlimit:10;"/><line x1="472.769" y1="817.054" x2="472.769" y2="1049.394" style="stroke:#181818;stroke-width:1;"/><line x1="472.769" y1="1049.394" x2="612.709" y2="1049.394" style="stroke:#181818;stroke-width:1;"/><polygon points="602.709,1045.394,612.709,1049.394,602.709,1053.394,606.709,1049.394" fill="#181818" style="stroke:#181818;stroke-width:1;stroke-linejoin:miter;stroke-miterlimit:10;"/><line x1="624.709" y1="785.054" x2="624.709" y2="805.054" style="stroke:#181818;stroke-width:1;"/><polygon points="620.709,795.054,624.709,805.054,628.709,795.054,624.709,799.054" fill="#181818" style="stroke:#181818;stroke-width:1;stroke-linejoin:miter;stroke-miterlimit:10;"/><line x1="712.589" y1="1201.331" x2="722.589" y2="1201.331" style="stroke:#181818;stroke-width:1;"/><line x1="722.589" y1="1201.331" x2="722.589" y2="1233.331" style="stroke:#181818;stroke-width:1;"/><polygon points="718.589,1223.331,722.589,1233.331,726.589,1223.331,722.589,1227.331" fill="#181818" style="stroke:#181818;stroke-width:1;stroke-linejoin:miter;stroke-miterlimit:10;"/><line x1="624.709" y1="1169.331" x2="624.709" y2="1189.331" style="stroke:#181818;stroke-width:1;"/><polygon points="620.709,1179.331,624.709,1189.331,628.709,1179.331,624.709,1183.331" fill="#181818" style="stroke:#181818;stroke-width:1;stroke-linejoin:miter;stroke-miterlimit:10;"/><line x1="624.709" y1="1409.237" x2="624.709" y2="1429.237" style="stroke:#181818;stroke-width:1;"/><polygon points="620.709,1419.237,624.709,1429.237,628.709,1419.237,624.709,1423.237" fill="#181818" style="stroke:#181818;stroke-width:1;stroke-linejoin:miter;stroke-miterlimit:10;"/><line x1="1129.391" y1="975.394" x2="1129.391" y2="995.394" style="stroke:#181818;stroke-width:1;"/><polygon points="1125.391,985.394,1129.391,995.394,1133.391,985.394,1129.391,989.394" fill="#181818" style="stroke:#181818;stroke-width:1;stroke-linejoin:miter;stroke-miterlimit:10;"/><line x1="937.68" y1="919.425" x2="927.68" y2="919.425" style="stroke:#181818;stroke-width:1;"/><line x1="927.68" y1="919.425" x2="927.68" y2="941.425" style="stroke:#181818;stroke-width:1;"/><polygon points="923.68,931.425,927.68,941.425,931.68,931.425,927.68,935.425" fill="#181818" style="stroke:#181818;stroke-width:1;stroke-linejoin:miter;stroke-miterlimit:10;"/><line x1="1119.391" y1="919.425" x2="1129.391" y2="919.425" style="stroke:#181818;stroke-width:1;"/><line x1="1129.391" y1="919.425" x2="1129.391" y2="941.425" style="stroke:#181818;stroke-width:1;"/><polygon points="1125.391,931.425,1129.391,941.425,1133.391,931.425,1129.391,935.425" fill="#181818" style="stroke:#181818;stroke-width:1;stroke-linejoin:miter;stroke-miterlimit:10;"/><line x1="927.68" y1="975.394" x2="927.68" y2="1025.192" style="stroke:#181818;stroke-width:1;"/><line x1="927.68" y1="1025.192" x2="624.709" y2="1025.192" style="stroke:#181818;stroke-width:1;"/><line x1="624.709" y1="1025.192" x2="624.709" y2="1037.394" style="stroke:#181818;stroke-width:1;"/><polygon points="620.709,1027.394,624.709,1037.394,628.709,1027.394,624.709,1031.394" fill="#181818" style="stroke:#181818;stroke-width:1;stroke-linejoin:miter;stroke-miterlimit:10;"/><line x1="1028.536" y1="887.425" x2="1028.536" y2="907.425" style="stroke:#181818;stroke-width:1;"/><polygon points="1024.536,897.425,1028.536,907.425,1032.536,897.425,1028.536,901.425" fill="#181818" style="stroke:#181818;stroke-width:1;stroke-linejoin:miter;stroke-miterlimit:10;"/><line x1="1712.365" y1="1639.081" x2="1712.365" y2="1659.081" style="stroke:#181818;stroke-width:1;"/><polygon points="1708.365,1649.081,1712.365,1659.081,1716.365,1649.081,1712.365,1653.081" fill="#181818" style="stroke:#181818;stroke-width:1;stroke-linejoin:miter;stroke-miterlimit:10;"/><line x1="321.385" y1="240.933" x2="740.01" y2="240.933" style="stroke:#181818;stroke-width:1;"/><line x1="740.01" y1="240.933" x2="740.01" y2="272.933" style="stroke:#181818;stroke-width:1;"/><polygon points="736.01,262.933,740.01,272.933,744.01,262.933,740.01,266.933" fill="#181818" style="stroke:#181818;stroke-width:1;stroke-linejoin:miter;stroke-miterlimit:10;"/><line x1="740.01" y1="306.901" x2="740.01" y2="342.87" style="stroke:#181818;stroke-width:1;"/><line x1="740.01" y1="342.87" x2="268.89" y2="342.87" style="stroke:#181818;stroke-width:1;"/><polygon points="278.89,338.87,268.89,342.87,278.89,346.87,274.89,342.87" fill="#181818" style="stroke:#181818;stroke-width:1;stroke-linejoin:miter;stroke-miterlimit:10;"/><line x1="256.89" y1="476.776" x2="256.89" y2="481.776" style="stroke:#181818;stroke-width:1;"/><line x1="256.89" y1="481.776" x2="624.709" y2="481.776" style="stroke:#181818;stroke-width:1;"/><line x1="624.709" y1="481.776" x2="624.709" y2="496.776" style="stroke:#181818;stroke-width:1;"/><polygon points="620.709,486.776,624.709,496.776,628.709,486.776,624.709,490.776" fill="#181818" style="stroke:#181818;stroke-width:1;stroke-linejoin:miter;stroke-miterlimit:10;"/><line x1="624.709" y1="829.054" x2="624.709" y2="841.255" style="stroke:#181818;stroke-width:1;"/><line x1="624.709" y1="841.255" x2="1028.536" y2="841.255" style="stroke:#181818;stroke-width:1;"/><line x1="1028.536" y1="841.255" x2="1028.536" y2="853.456" style="stroke:#181818;stroke-width:1;"/><polygon points="1024.536,843.456,1028.536,853.456,1032.536,843.456,1028.536,847.456" fill="#181818" style="stroke:#181818;stroke-width:1;stroke-linejoin:miter;stroke-miterlimit:10;"/><line x1="624.709" y1="1061.394" x2="624.709" y2="1066.394" style="stroke:#181818;stroke-width:1;"/><line x1="624.709" y1="1066.394" x2="1385.19" y2="1066.394" style="stroke:#181818;stroke-width:1;"/><line x1="1385.19" y1="1066.394" x2="1385.19" y2="1081.394" style="stroke:#181818;stroke-width:1;"/><polygon points="1381.19,1071.394,1385.19,1081.394,1389.19,1071.394,1385.19,1075.394" fill="#181818" style="stroke:#181818;stroke-width:1;stroke-linejoin:miter;stroke-miterlimit:10;"/><line x1="1385.19" y1="1115.362" x2="1385.19" y2="1120.362" style="stroke:#181818;stroke-width:1;"/><line x1="1385.19" y1="1120.362" x2="624.709" y2="1120.362" style="stroke:#181818;stroke-width:1;"/><line x1="624.709" y1="1120.362" x2="624.709" y2="1135.362" style="stroke:#181818;stroke-width:1;"/><polygon points="620.709,1125.362,624.709,1135.362,628.709,1125.362,624.709,1129.362" fill="#181818" style="stroke:#181818;stroke-width:1;stroke-linejoin:miter;stroke-miterlimit:10;"/><line x1="722.589" y1="1267.3" x2="722.589" y2="1272.3" style="stroke:#181818;stroke-width:1;"/><line x1="722.589" y1="1272.3" x2="354.77" y2="1272.3" style="stroke:#181818;stroke-width:1;"/><line x1="354.77" y1="1272.3" x2="354.77" y2="1287.3" style="stroke:#181818;stroke-width:1;"/><polygon points="350.77,1277.3,354.77,1287.3,358.77,1277.3,354.77,1281.3" fill="#181818" style="stroke:#181818;stroke-width:1;stroke-linejoin:miter;stroke-miterlimit:10;"/><line x1="354.77" y1="1321.269" x2="354.77" y2="1326.269" style="stroke:#181818;stroke-width:1;"/><line x1="354.77" y1="1326.269" x2="1483.071" y2="1326.269" style="stroke:#181818;stroke-width:1;"/><line x1="1483.071" y1="1326.269" x2="1483.071" y2="1341.269" style="stroke:#181818;stroke-width:1;"/><polygon points="1479.071,1331.269,1483.071,1341.269,1487.071,1331.269,1483.071,1335.269" fill="#181818" style="stroke:#181818;stroke-width:1;stroke-linejoin:miter;stroke-miterlimit:10;"/><line x1="536.829" y1="1201.331" x2="524.829" y2="1201.331" style="stroke:#181818;stroke-width:1;"/><line x1="524.829" y1="1201.331" x2="524.829" y2="1219.331" style="stroke:#181818;stroke-width:1;"/><line x1="524.829" y1="1219.331" x2="1287.31" y2="1219.331" style="stroke:#181818;stroke-width:1;"/><line x1="1287.31" y1="1219.331" x2="1287.31" y2="1233.331" style="stroke:#181818;stroke-width:1;"/><polygon points="1283.31,1223.331,1287.31,1233.331,1291.31,1223.331,1287.31,1227.331" fill="#181818" style="stroke:#181818;stroke-width:1;stroke-linejoin:miter;stroke-miterlimit:10;"/><line x1="1287.31" y1="1267.3" x2="1287.31" y2="1379.237" style="stroke:#181818;stroke-width:1;"/><line x1="1287.31" y1="1379.237" x2="594.709" y2="1379.237" style="stroke:#181818;stroke-width:1;"/><line x1="594.709" y1="1379.237" x2="594.709" y2="1397.237" style="stroke:#181818;stroke-width:1;"/><line x1="594.709" y1="1397.237" x2="612.709" y2="1397.237" style="stroke:#181818;stroke-width:1;"/><polygon points="602.709,1393.237,612.709,1397.237,602.709,1401.237,606.709,1397.237" fill="#181818" style="stroke:#181818;stroke-width:1;stroke-linejoin:miter;stroke-miterlimit:10;"/><line x1="1483.071" y1="1375.237" x2="1483.071" y2="1397.237" style="stroke:#181818;stroke-width:1;"/><line x1="1483.071" y1="1397.237" x2="636.709" y2="1397.237" style="stroke:#181818;stroke-width:1;"/><polygon points="646.709,1393.237,636.709,1397.237,646.709,1401.237,642.709,1397.237" fill="#181818" style="stroke:#181818;stroke-width:1;stroke-linejoin:miter;stroke-miterlimit:10;"/><line x1="624.709" y1="1463.206" x2="624.709" y2="1468.206" style="stroke:#181818;stroke-width:1;"/><line x1="624.709" y1="1468.206" x2="1385.19" y2="1468.206" style="stroke:#181818;stroke-width:1;"/><line x1="1385.19" y1="1468.206" x2="1385.19" y2="1483.206" style="stroke:#181818;stroke-width:1;"/><polygon points="1381.19,1473.206,1385.19,1483.206,1389.19,1473.206,1385.19,1477.206" fill="#181818" style="stroke:#181818;stroke-width:1;stroke-linejoin:miter;stroke-miterlimit:10;"/><line x1="1385.19" y1="1517.175" x2="1385.19" y2="1522.175" style="stroke:#181818;stroke-width:1;"/><line x1="1385.19" y1="1522.175" x2="624.709" y2="1522.175" style="stroke:#181818;stroke-width:1;"/><line x1="624.709" y1="1522.175" x2="624.709" y2="1537.175" style="stroke:#181818;stroke-width:1;"/><polygon points="620.709,1527.175,624.709,1537.175,628.709,1527.175,624.709,1531.175" fill="#181818" style="stroke:#181818;stroke-width:1;stroke-linejoin:miter;stroke-miterlimit:10;"/><line x1="624.709" y1="1585.112" x2="624.709" y2="1590.112" style="stroke:#181818;stroke-width:1;"/><line x1="624.709" y1="1590.112" x2="1712.365" y2="1590.112" style="stroke:#181818;stroke-width:1;"/><line x1="1712.365" y1="1590.112" x2="1712.365" y2="1605.112" style="stroke:#181818;stroke-width:1;"/><polygon points="1708.365,1595.112,1712.365,1605.112,1716.365,1595.112,1712.365,1599.112" fill="#181818" style="stroke:#181818;stroke-width:1;stroke-linejoin:miter;stroke-miterlimit:10;"/><text x="212.93" y="71.75" fill="#000" font-size="18" textLength="47.909">Sales</text><text x="612.835" y="71.75" fill="#000" font-size="18" textLength="67.122">System</text><text x="984.97" y="71.75" fill="#000" font-size="18" textLength="78.899">Manager</text><text x="1369.684" y="71.75" fill="#000" font-size="18" textLength="57.683">Admin</text><text x="1667.649" y="71.75" fill="#000" font-size="18" textLength="87.434">Customer</text><?plantuml-src dLHDZzem4BtdLyoHbPO_08UA0ggeH1TjkYjLuZB40tXnxDGVGKZy-8uT4WBiNdh8nPvvyzwR5tlf5S7q7NxZHpZ0AzMa0n-S2ZxEJyvJ2KEO55xMqfzW9d5diSooSuwAt3bp7gtFHakKslC7q-2yASa2QW4hQqGeF0ZqECv6Kqle2H0q7S5Rr0uPr-Xnbiaj31OE_5uwlbzPWXSho7vxuYFICFX3xYa36CsrP-mITK05gnTOp9x1qjyWBOauXfxNEauEbJ8eOdEi4gO89Ma_paWvWi4l4y7EZRnpnFr1ccma5pkIj8O03-0cBUJsAdcKao9M5KkBljogaUjOwbn83z-HXwsiB2XTK-9kgYWPrLelqHv21SQogwum8VBBEbAZAQeYgCZfJJFO5SSRZufdlAEI8XdAXmxhXlp_-PgJRjngpHmcP4kbr5pVUJ2QrwX2lEgKLtYAteALxd2Tk4IDk-XBnQvmJmTyF_fygKnhuFZ9c8rx7G2Ta9kR2_mZAcDDcglFmFefI5C_sdtU5GAmo2fs9Fbj42Q2RU4LtQHceMl3AxhTOPFuUFrA1SaQDuhwQw7EFiv62JFQIF_Wq6LSObeOA_fzNqSwB_OaWcgcRwHIKkzWQvGons6engcw2JGNhyXk3HFuklQ1HCK_lkJ5SdwtGQaUeVPtQLrugrAOBWQbk5xTO8VH1pVksTfpBG_iB_n4XVh6sCxvoiQ79-BquNjjQtsKVdyJ6d-gchBuD10_MogDRvykXc_eDHGkVtLgQ1yIhe_1-0S0?></g></svg>